# xmcd CD database file
#
# Track frame offsets:
#	150
#	18497
#	38257
#	57587
#	78315
#	95495
#	114587
#	136845
#	160080
#	181267
#
# Disc length: 2719 seconds
#
# Revision: 0
# Processed by: cddbd v1.5.1PL0 Copyright (c) Steve Scherf et al.
# Submitted via: CDex 1.50beta8
#
DISCID=730a9d0a
DTITLE=デ・ジ・キャラットファンタジー - サウンドトラックアレンジCD
DYEAR=1900
DGENRE=Game
TTITLE0=透明な記憶
TTITLE1=おでかけしたいよ
TTITLE2=希望の道
TTITLE3=母の思い出
TTITLE4=勇気をキミに
TTITLE5=キミとすごす日曜日
TTITLE6=赤い自転車に乗ってボク
TTITLE7=夢見がちなおとしごろ
TTITLE8=悲しみの向こう側
TTITLE9=HEART
EXTD=
EXTT0=
EXTT1=
EXTT2=
EXTT3=
EXTT4=
EXTT5=
EXTT6=
EXTT7=
EXTT8=
EXTT9=
PLAYORDER=
